<svg width="32" height="32" viewBox="0 0 32 32" fill="none" xmlns="http://www.w3.org/2000/svg">
<circle cx="16" cy="16" r="15" stroke="white" stroke-width="2"/>
<mask id="mask0" mask-type="alpha" maskUnits="userSpaceOnUse" x="0" y="0" width="32" height="32">
<circle cx="16" cy="16" r="16" fill="#C4C4C4"/>
</mask>
<g mask="url(#mask0)">
<path d="M13.9668 9.82647L13.8408 10.9425L13.8858 10.9425L14.2368 9.80847L16.0188 6.31647L16.8108 6.31647L17.0718 9.82647L16.9548 10.9425L16.9998 10.9425L17.3598 9.80847L18.8358 6.31647L20.0958 6.31647L17.0988 12.6615L16.2798 12.6615L15.9468 9.16047L16.0188 8.19747L15.9648 8.19747L15.6228 9.16947L13.8318 12.6615L13.0128 12.6615L12.7068 6.31647L13.9398 6.31647L13.9668 9.82647Z" fill="white"/>
<path d="M22.1601 14.0765L21.0441 13.9505L21.0441 13.9955L22.1781 14.3465L25.6701 16.1285L25.6701 16.9205L22.1601 17.1815L21.0441 17.0645L21.0441 17.1095L22.1781 17.4695L25.6701 18.9455L25.6701 20.2055L19.3251 17.2085L19.3251 16.3895L22.8261 16.0565L23.7891 16.1285L23.7891 16.0745L22.8171 15.7325L19.3251 13.9415L19.3251 13.1225L25.6701 12.8165L25.6701 14.0495L22.1601 14.0765Z" fill="white"/>
<path d="M18.1225 22.1993L18.2485 21.0833L18.2035 21.0833L17.8525 22.2173L16.0705 25.7093L15.2785 25.7093L15.0175 22.1993L15.1345 21.0833L15.0895 21.0833L14.7295 22.2173L13.2535 25.7093L11.9935 25.7093L14.9905 19.3643L15.8095 19.3643L16.1425 22.8653L16.0705 23.8283L16.1245 23.8283L16.4665 22.8563L18.2575 19.3643L19.0765 19.3643L19.3825 25.7093L18.1495 25.7093L18.1225 22.1993Z" fill="white"/>
<path d="M9.92875 18.1262L11.0447 18.2522L11.0447 18.2072L9.91075 17.8562L6.41875 16.0742L6.41875 15.2822L9.92875 15.0212L11.0447 15.1382L11.0447 15.0932L9.91075 14.7332L6.41875 13.2572L6.41875 11.9972L12.7637 14.9942L12.7637 15.8132L9.26275 16.1462L8.29975 16.0742L8.29975 16.1282L9.27175 16.4702L12.7637 18.2612L12.7637 19.0802L6.41875 19.3862L6.41875 18.1532L9.92875 18.1262Z" fill="white"/>
</g>
</svg>
